<svg xmlns="http://www.w3.org/2000/svg" width="24" height="24" viewBox="0 0 24 24" shape-rendering="crispEdges" xmlns:c2pa="http://c2pa.org/manifest"><metadata><c2pa:manifest>AAAWgmp1bWIAAAAeanVtZGMycGEAEQAQgAAAqgA4m3EDYzJwYQAAABZcanVtYgAAAEdqdW1kYzJtYQARABCAAACqADibcQN1cm46YzJwYTpmNjdmZjZhNC01NDMwLTRjODgtYjM1ZS0zOWIxZWQ1MDljMDIAAAADl2p1bWIAAAApanVtZGMyYXMAEQAQgAAAqgA4m3EDYzJwYS5hc3NlcnRpb25zAAAAALxqdW1iAAAARGp1bWRjYm9yABEAEIAAAKoAOJtxE2MycGEuaW5ncmVkaWVudC52MwAAAAAYYzJzaGS3g8XNjRG8sbaUPDko508AAABwY2JvcqNpZGM6Zm9ybWF0bWltYWdlL3N2Zyt4bWxqaW5zdGFuY2VJRHgseG1wOmlpZDoxYjRlNjE4Ni1hNDlkLTQ2ZDktOTQ0ZC03YjI3ODgxM2UyZWRscmVsYXRpb25zaGlwaHBhcmVudE9mAAAB4mp1bWIAAABBanVtZGNib3IAEQAQgAAAqgA4m3ETYzJwYS5hY3Rpb25zLnYyAAAAABhjMnNogOXwa8nRP8wrqcT2RKEI3QAAAZljYm9yomdhY3Rpb25zgqJmYWN0aW9ua2MycGEub3BlbmVkanBhcmFtZXRlcnOha2luZ3JlZGllbnRzgaJjdXJseC1zZWxmI2p1bWJmPWMycGEuYXNzZXJ0aW9ucy9jMnBhLmluZ3JlZGllbnQudjNkaGFzaFggR5CjzNbWnXx6AfKxUrHkfW6obctKnwtKFMZjTgwJ3BikZmFjdGlvbngdY29tLmFudGhyb3BpYy5jbGF1ZGUucHJvdmlkZWRqcGFyYW1ldGVyc6F4H2NvbS5hbnRocm9waWMub3JpZ2luLWNvbmZpZGVuY2VndW5rbm93bmtkZXNjcmlwdGlvbnhmQ2xhdWRlIHByb3ZpZGVkIHRoaXMgZmlsZSBhdCB0aGUgcmVxdWVzdCBvZiBhIHVzZXIgYW5kIG1heSBoYXZlIGNyZWF0ZWQgb3IgbW9kaWZpZWQgdGhlIGZpbGUgY29udGVudHMubXNvZnR3YXJlQWdlbnShZG5hbWVmQ2xhdWRlcmFsbEFjdGlvbnNJbmNsdWRlZPUAAADIanVtYgAAAEBqdW1kY2JvcgARABCAAACqADibcRNjMnBhLmhhc2guZGF0YQAAAAAYYzJzaCI81dDRVQC2gaMGFOrx1R0AAACAY2JvcqVjYWxnZnNoYTI1NmNwYWRNAAAAAAAAAAAAAAAAAGRoYXNoWCCyZ4ucqTqxZmprvKoM3H3SekTq3fK7eQmxUZhdsTyPq2RuYW1lbmp1bWJmIG1hbmlmZXN0amV4Y2x1c2lvbnOBomVzdGFydBivZmxlbmd0aBkeBAAAAj5qdW1iAAAAJ2p1bWRjMmNsABEAEIAAAKoAOJtxA2MycGEuY2xhaW0udjIAAAACD2Nib3KlY2FsZ2ZzaGEyNTZpc2lnbmF0dXJleE1zZWxmI2p1bWJmPS9jMnBhL3VybjpjMnBhOmY2N2ZmNmE0LTU0MzAtNGM4OC1iMzVlLTM5YjFlZDUwOWMwMi9jMnBhLnNpZ25hdHVyZWppbnN0YW5jZUlEeCx4bXA6aWlkOmQxZGNkZjUzLWRjMjktNGExNC1hOGUzLTFiNGQwMGNhNTZjNHJjcmVhdGVkX2Fzc2VydGlvbnODomN1cmx4LXNlbGYjanVtYmY9YzJwYS5hc3NlcnRpb25zL2MycGEuaW5ncmVkaWVudC52M2RoYXNoWCBHkKPM1tadfHoB8rFSseR9bqhty0qfC0oUxmNODAncGKJjdXJseCpzZWxmI2p1bWJmPWMycGEuYXNzZXJ0aW9ucy9jMnBhLmFjdGlvbnMudjJkaGFzaFggaJ3yt4aMCyLELnH4wOzpIPJcndPsYgNLSqGL3y5g/xeiY3VybHgpc2VsZiNqdW1iZj1jMnBhLmFzc2VydGlvbnMvYzJwYS5oYXNoLmRhdGFkaGFzaFggDXO6GMAHWqIi3WrJWVV55s/NmUp3Ydokgon33fhbCq10Y2xhaW1fZ2VuZXJhdG9yX2luZm+jZG5hbWVvQW50aHJvcGljIEZpbGVzZ3ZlcnNpb25lMS4wLjBrc3BlY1ZlcnNpb25lMi40LjAAABA4anVtYgAAAChqdW1kYzJjcwARABCAAACqADibcQNjMnBhLnNpZ25hdHVyZQAAABAIY2JvctKEWQISogEmGCFZAgowggIGMIIBjaADAgECAhRA5aAK7sI50L64g/oGQgU9Z1UTADAKBggqhkjOPQQDAzBJMRcwFQYDVQQKEw5BbnRocm9waWMsIFBCQzEuMCwGA1UEAxMlQW50aHJvcGljIENvbnRlbnQgQ3JlZGVudGlhbHMgUm9vdCBDQTAeFw0yNjA4MDcxODQzNTZaFw0yODA4MDYxOTQzNTZaMEQxFzAVBgNVBAoTDkFudGhyb3BpYywgUEJDMSkwJwYDVQQDEyBBbnRocm9waWMgQ2xhdWRlIENvbnRlbnQgU2lnbmluZzBZMBMGByqGSM49AgEGCCqGSM49AwEHA0IABJh6CmvLUBgFFNU0vUKlOVtE6djd17L5SuwX0LemFisBM3dkd/3cyjxFA3Qo5S46fX0/ihY0VZ7mfb9KF703t5OjWDBWMA4GA1UdDwEB/wQEAwIHgDAVBgNVHSUEDjAMBgorBgEEAYPoXgIBMAwGA1UdEwEB/wQCMAAwHwYDVR0jBBgwFoAUzlHiBIFOZFsj+OPEz5o+nMHXXMIwCgYIKoZIzj0EAwMDZwAwZAIwMXMdFJ4BetLLVY7ORuE9noqbbAZOZn/aArXyTwFAZfKrPzxF2vPoJNf1+UCdg1XGAjBwX1zd9WGqYkqmL5SFqw1QySjr1zJfpJM9+1rdDwSPLMOPOjKuiXjoU/pUUeG9RwmhY3BhZFkNngAAAAAAAAAAAAAAAAAAAAAAAAAAAAAAAAAAAAAAAAAAAAAAAAAAAAAAAAAAAAAAAAAAAAAAAAAAAAAAAAAAAAAAAAAAAAAAAAAAAAAAAAAAAAAAAAAAAAAAAAAAAAAAAAAAAAAAAAAAAAAAAAAAAAAAAAAAAAAAAAAAAAAAAAAAAAAAAAAAAAAAAAAAAAAAAAAAAAAAAAAAAAAAAAAAAAAAAAAAAAAAAAAAAAAAAAAAAAAAAAAAAAAAAAAAAAAAAAAAAAAAAAAAAAAAAAAAAAAAAAAAAAAAAAAAAAAAAAAAAAAAAAAAAAAAAAAAAAAAAAAAAAAAAAAAAAAAAAAAAAAAAAAAAAAAAAAAAAAAAAAAAAAAAAAAAAAAAAAAAAAAAAAAAAAAAAAAAAAAAAAAAAAAAAAAAAAAAAAAAAAAAAAAAAAAAAAAAAAAAAAAAAAAAAAAAAAAAAAAAAAAAAAAAAAAAAAAAAAAAAAAAAAAAAAAAAAAAAAAAAAAAAAAAAAAAAAAAAAAAAAAAAAAAAAAAAAAAAAAAAAAAAAAAAAAAAAAAAAAAAAAAAAAAAAAAAAAAAAAAAAAAAAAAAAAAAAAAAAAAAAAAAAAAAAAAAAAAAAAAAAAAAAAAAAAAAAAAAAAAAAAAAAAAAAAAAAAAAAAAAAAAAAAAAAAAAAAAAAAAAAAAAAAAAAAAAAAAAAAAAAAAAAAAAAAAAAAAAAAAAAAAAAAAAAAAAAAAAAAAAAAAAAAAAAAAAAAAAAAAAAAAAAAAAAAAAAAAAAAAAAAAAAAAAAAAAAAAAAAAAAAAAAAAAAAAAAAAAAAAAAAAAAAAAAAAAAAAAAAAAAAAAAAAAAAAAAAAAAAAAAAAAAAAAAAAAAAAAAAAAAAAAAAAAAAAAAAAAAAAAAAAAAAAAAAAAAAAAAAAAAAAAAAAAAAAAAAAAAAAAAAAAAAAAAAAAAAAAAAAAAAAAAAAAAAAAAAAAAAAAAAAAAAAAAAAAAAAAAAAAAAAAAAAAAAAAAAAAAAAAAAAAAAAAAAAAAAAAAAAAAAAAAAAAAAAAAAAAAAAAAAAAAAAAAAAAAAAAAAAAAAAAAAAAAAAAAAAAAAAAAAAAAAAAAAAAAAAAAAAAAAAAAAAAAAAAAAAAAAAAAAAAAAAAAAAAAAAAAAAAAAAAAAAAAAAAAAAAAAAAAAAAAAAAAAAAAAAAAAAAAAAAAAAAAAAAAAAAAAAAAAAAAAAAAAAAAAAAAAAAAAAAAAAAAAAAAAAAAAAAAAAAAAAAAAAAAAAAAAAAAAAAAAAAAAAAAAAAAAAAAAAAAAAAAAAAAAAAAAAAAAAAAAAAAAAAAAAAAAAAAAAAAAAAAAAAAAAAAAAAAAAAAAAAAAAAAAAAAAAAAAAAAAAAAAAAAAAAAAAAAAAAAAAAAAAAAAAAAAAAAAAAAAAAAAAAAAAAAAAAAAAAAAAAAAAAAAAAAAAAAAAAAAAAAAAAAAAAAAAAAAAAAAAAAAAAAAAAAAAAAAAAAAAAAAAAAAAAAAAAAAAAAAAAAAAAAAAAAAAAAAAAAAAAAAAAAAAAAAAAAAAAAAAAAAAAAAAAAAAAAAAAAAAAAAAAAAAAAAAAAAAAAAAAAAAAAAAAAAAAAAAAAAAAAAAAAAAAAAAAAAAAAAAAAAAAAAAAAAAAAAAAAAAAAAAAAAAAAAAAAAAAAAAAAAAAAAAAAAAAAAAAAAAAAAAAAAAAAAAAAAAAAAAAAAAAAAAAAAAAAAAAAAAAAAAAAAAAAAAAAAAAAAAAAAAAAAAAAAAAAAAAAAAAAAAAAAAAAAAAAAAAAAAAAAAAAAAAAAAAAAAAAAAAAAAAAAAAAAAAAAAAAAAAAAAAAAAAAAAAAAAAAAAAAAAAAAAAAAAAAAAAAAAAAAAAAAAAAAAAAAAAAAAAAAAAAAAAAAAAAAAAAAAAAAAAAAAAAAAAAAAAAAAAAAAAAAAAAAAAAAAAAAAAAAAAAAAAAAAAAAAAAAAAAAAAAAAAAAAAAAAAAAAAAAAAAAAAAAAAAAAAAAAAAAAAAAAAAAAAAAAAAAAAAAAAAAAAAAAAAAAAAAAAAAAAAAAAAAAAAAAAAAAAAAAAAAAAAAAAAAAAAAAAAAAAAAAAAAAAAAAAAAAAAAAAAAAAAAAAAAAAAAAAAAAAAAAAAAAAAAAAAAAAAAAAAAAAAAAAAAAAAAAAAAAAAAAAAAAAAAAAAAAAAAAAAAAAAAAAAAAAAAAAAAAAAAAAAAAAAAAAAAAAAAAAAAAAAAAAAAAAAAAAAAAAAAAAAAAAAAAAAAAAAAAAAAAAAAAAAAAAAAAAAAAAAAAAAAAAAAAAAAAAAAAAAAAAAAAAAAAAAAAAAAAAAAAAAAAAAAAAAAAAAAAAAAAAAAAAAAAAAAAAAAAAAAAAAAAAAAAAAAAAAAAAAAAAAAAAAAAAAAAAAAAAAAAAAAAAAAAAAAAAAAAAAAAAAAAAAAAAAAAAAAAAAAAAAAAAAAAAAAAAAAAAAAAAAAAAAAAAAAAAAAAAAAAAAAAAAAAAAAAAAAAAAAAAAAAAAAAAAAAAAAAAAAAAAAAAAAAAAAAAAAAAAAAAAAAAAAAAAAAAAAAAAAAAAAAAAAAAAAAAAAAAAAAAAAAAAAAAAAAAAAAAAAAAAAAAAAAAAAAAAAAAAAAAAAAAAAAAAAAAAAAAAAAAAAAAAAAAAAAAAAAAAAAAAAAAAAAAAAAAAAAAAAAAAAAAAAAAAAAAAAAAAAAAAAAAAAAAAAAAAAAAAAAAAAAAAAAAAAAAAAAAAAAAAAAAAAAAAAAAAAAAAAAAAAAAAAAAAAAAAAAAAAAAAAAAAAAAAAAAAAAAAAAAAAAAAAAAAAAAAAAAAAAAAAAAAAAAAAAAAAAAAAAAAAAAAAAAAAAAAAAAAAAAAAAAAAAAAAAAAAAAAAAAAAAAAAAAAAAAAAAAAAAAAAAAAAAAAAAAAAAAAAAAAAAAAAAAAAAAAAAAAAAAAAAAAAAAAAAAAAAAAAAAAAAAAAAAAAAAAAAAAAAAAAAAAAAAAAAAAAAAAAAAAAAAAAAAAAAAAAAAAAAAAAAAAAAAAAAAAAAAAAAAAAAAAAAAAAAAAAAAAAAAAAAAAAAAAAAAAAAAAAAAAAAAAAAAAAAAAAAAAAAAAAAAAAAAAAAAAAAAAAAAAAAAAAAAAAAAAAAAAAAAAAAAAAAAAAAAAAAAAAAAAAAAAAAAAAAAAAAAAAAAAAAAAAAAAAAAAAAAAAAAAAAAAAAAAAAAAAAAAAAAAAAAAAAAAAAAAAAAAAAAAAAAAAAAAAAAAAAAAAAAAAAAAAAAAAAAAAAAAAAAAAAAAAAAAAAAAAAAAAAAAAAAAAAAAAAAAAAAAAAAAAAAAAAAAAAAAAAAAAAAAAAAAAAAAAAAAAAAAAAAAAAAAAAAAAAAAAAAAAAAAAAAAAAAAAAAAAAAAAAAAAAAAAAAAAAAAAAAAAAAAAAAAAAAAAAAAAAAAAAAAAAAAAAAAAAAAAAAAAAAAAAAAAAAAAAAAAAAAAAAAAAAAAAAAAAAAAAAAAAAAAAAAAAAAAAAAAAAAAAAAAAAAAAAAAAAAAAAAAAAAAAAAAAAAAAAAAAAAAAAAAAAAAAAAAAAAAAAAAAAAAAAAAAAAAAAAAAAAAAAAAAAAAAAAAAAAAAAAAAAAAAAAAAAAAAAAAAAAAAAAAAAAAAAAAAAAAAAAAAAAAAAAAAAAAAAAAAAAAAAAAAAAAAAAAAAAAAAAAAAAAAAAAAAAAAAAAAAAAAAAAAAAAAAAAAAAAAAAAAAAAAAAAAAAAAAAAAAAAAAAAAAAAAAAAAAAAAAAAAAAAAAAAAAAAAAAAAAAAAAAAAAAAAAAAAAAAAAAAAAAAAAAAAAAAAAAAAAAAAAAAAAAAAAAAAAAAAAAAAAAAAAAAAAAAAAAAAAAAAAAAAAAAAAAAAAAAAAAAAAAAAAAAAAAAAAAAAAAAAAAAAAAAAAAAAAAAAAAAAAAAAAAAAAAAAAAAAAAAAAAAAAAAAAAAAAAAAAAAAAAAAAAAAAAAAAAAAAAAAAAAAAAAAAAAAAAAAAAAAAAAAAAAAAAAAAAAAAAAAAAAAAAAAAAAAAAAAAAAAAAAAAAAAAAAAAAAAAAAAAAAAAAAAAAAAAAAAAAAAAAAAAAAAAAAAAAAAAAAAAAAAAAAAAAAAAAAAAAAAAAAAAAAAAAAAAAAAAAAAAAAAAAAAAAAAAAAAAAAAAAAAAAAAAAAAAAAAAAAAAAAAAAAAAAAAAAAAAAAAAAAAAAAAAAAAAAAAAAAAAAAAAAAAAAAAAAAAAAAAAAAAAAAAAAAAAAAAAAAAAAAAAAAAAAAAAAAAAAAAAAAAAAAAAAAAAAAAAAAAAAAAAAAAAAAAAAAAAAAAAAAAAAAAAAAAAAAAAAAAAAAAAAAAAAAAAAAAAAAAAAAAAAAAAAAAAAAAAAAAAAAAAAAAAAAAAAAAAAAAAAAAAAAAAAAAAAAAAAAAAAAAAAAAAAAAAAAAAAAAAAAAAAAAAAAAAAAAAAAAAAAAAAAAAAAAAAAAAAAAAAAAAAAAAAAAAAAAAAAAAAAAAAAAAAAAAAAAAAAAAAAAAAAAAAAAAAAAAAAAAAAAAAAAAAAAAAAAAAAAAAAAAAAAAAAAAAAAAAAAAAAAAAAAAAAAPZYQAoYwde2cdTGfQ9aIdldPDnc+2Br5Gdnd1LfbHdcl2d7qnzFuepExYl9gGr8FinZ8CBA0f00MFNPV1tVDvXDNHI=</c2pa:manifest></metadata><title>Guardian II</title><path fill="#2E1650" d="M9 0h6v1h-6zM7 1h2v1h-2zM15 1h2v1h-2zM5 2h2v1h-2zM17 2h2v1h-2zM4 3h1v1h-1zM19 3h1v1h-1zM3 4h1v1h-1zM20 4h1v1h-1zM2 5h1v1h-1zM21 5h1v1h-1zM2 6h1v1h-1zM21 6h1v1h-1zM1 7h1v1h-1zM22 7h1v1h-1zM1 8h1v1h-1zM22 8h1v1h-1zM0 9h1v1h-1zM23 9h1v1h-1zM0 10h1v1h-1zM23 10h1v1h-1zM0 11h1v1h-1zM23 11h1v1h-1zM0 12h1v1h-1zM23 12h1v1h-1zM0 13h1v1h-1zM23 13h1v1h-1zM0 14h1v1h-1zM23 14h1v1h-1zM1 15h1v1h-1zM22 15h1v1h-1zM1 16h1v1h-1zM22 16h1v1h-1zM2 17h1v1h-1zM21 17h1v1h-1zM2 18h1v1h-1zM21 18h1v1h-1zM3 19h1v1h-1zM20 19h1v1h-1zM4 20h1v1h-1zM19 20h1v1h-1zM5 21h2v1h-2zM17 21h2v1h-2zM7 22h2v1h-2zM15 22h2v1h-2zM9 23h6v1h-6z"></path><path fill="#9B5DE5" d="M9 1h6v1h-6zM7 2h10v1h-10zM5 3h5v1h-5zM14 3h5v1h-5zM4 4h4v1h-4zM16 4h4v1h-4zM3 5h3v1h-3zM18 5h3v1h-3zM3 6h2v1h-2zM19 6h1v1h-1zM2 7h3v1h-3zM19 7h3v1h-3zM2 8h2v1h-2zM20 8h1v1h-1zM1 9h3v1h-3zM20 9h3v1h-3zM1 10h2v1h-2zM21 10h1v1h-1zM1 11h2v1h-2zM21 11h1v1h-1zM1 12h2v1h-2zM21 12h1v1h-1zM1 13h2v1h-2zM21 13h1v1h-1zM1 14h3v1h-3zM20 14h2v1h-2zM2 15h2v1h-2zM20 15h1v1h-1zM2 16h3v1h-3zM19 16h2v1h-2zM3 17h2v1h-2zM19 17h1v1h-1zM3 18h3v1h-3zM18 18h2v1h-2zM4 19h4v1h-4zM16 19h3v1h-3zM5 20h1v1h-1zM7 20h3v1h-3zM14 20h3v1h-3zM7 21h1v1h-1zM9 21h6v1h-6zM9 22h1v1h-1z"></path><path fill="#14111C" d="M10 3h4v1h-4zM8 4h2v1h-2zM14 4h2v1h-2zM4 8h1v1h-1zM19 8h1v1h-1zM4 9h1v1h-1zM19 9h1v1h-1zM3 10h1v1h-1zM20 10h1v1h-1zM3 11h1v1h-1zM20 11h1v1h-1zM3 12h1v1h-1zM20 12h1v1h-1zM3 13h1v1h-1zM20 13h1v1h-1zM4 14h1v1h-1zM19 14h1v1h-1zM4 15h1v1h-1zM19 15h1v1h-1zM5 16h1v1h-1zM18 16h1v1h-1zM5 17h1v1h-1zM18 17h1v1h-1zM6 18h2v1h-2zM16 18h2v1h-2zM8 19h2v1h-2zM14 19h2v1h-2zM10 20h4v1h-4z"></path><path fill="#3D3550" d="M10 4h4v1h-4zM4 10h1v1h-1zM19 10h1v1h-1zM4 11h1v1h-1zM19 11h1v1h-1zM4 12h1v1h-1zM19 12h1v1h-1zM4 13h2v1h-2zM18 13h2v1h-2zM5 14h2v1h-2zM17 14h2v1h-2zM5 15h3v1h-3zM16 15h3v1h-3zM6 16h3v1h-3zM15 16h3v1h-3zM6 17h4v1h-4zM14 17h4v1h-4zM8 18h3v1h-3zM13 18h3v1h-3zM10 19h4v1h-4z"></path><path fill="#3A0A14" d="M6 5h12v1h-12zM5 6h1v1h-1zM18 6h1v1h-1zM5 7h1v1h-1zM18 7h1v1h-1zM5 8h1v1h-1zM18 8h1v1h-1zM5 9h1v1h-1zM18 9h1v1h-1zM5 10h1v1h-1zM18 10h1v1h-1zM5 11h1v1h-1zM18 11h1v1h-1zM5 12h1v1h-1zM18 12h1v1h-1zM6 13h1v1h-1zM17 13h1v1h-1zM7 14h1v1h-1zM16 14h1v1h-1zM8 15h1v1h-1zM15 15h1v1h-1zM9 16h1v1h-1zM14 16h1v1h-1zM10 17h1v1h-1zM13 17h1v1h-1zM11 18h2v1h-2z"></path><path fill="#9A1F35" d="M6 6h12v1h-12zM6 7h11v1h-11zM6 8h2v1h-2zM10 8h4v1h-4zM16 8h1v1h-1zM6 9h1v1h-1zM11 9h2v1h-2zM6 10h2v1h-2zM10 10h4v1h-4zM16 10h1v1h-1zM6 11h1v1h-1zM8 11h2v1h-2zM11 11h2v1h-2zM14 11h2v1h-2zM6 12h11v1h-11zM7 13h9v1h-9zM8 14h7v1h-7zM9 15h5v1h-5zM10 16h3v1h-3zM11 17h1v1h-1z"></path><path fill="#6E3AB0" d="M20 6h1v1h-1zM21 8h1v1h-1zM22 10h1v1h-1zM22 11h1v1h-1zM22 12h1v1h-1zM22 13h1v1h-1zM22 14h1v1h-1zM21 15h1v1h-1zM21 16h1v1h-1zM20 17h1v1h-1zM20 18h1v1h-1zM19 19h1v1h-1zM6 20h1v1h-1zM17 20h2v1h-2zM8 21h1v1h-1zM15 21h2v1h-2zM10 22h5v1h-5z"></path><path fill="#6E1626" d="M17 7h1v1h-1zM17 8h1v1h-1zM17 9h1v1h-1zM17 10h1v1h-1zM17 11h1v1h-1zM17 12h1v1h-1zM16 13h1v1h-1zM15 14h1v1h-1zM14 15h1v1h-1zM13 16h1v1h-1zM12 17h1v1h-1z"></path><path fill="#F2C14E" d="M8 8h2v1h-2zM14 8h2v1h-2zM7 9h4v1h-4zM13 9h4v1h-4zM8 10h2v1h-2zM14 10h2v1h-2zM7 11h1v1h-1zM10 11h1v1h-1zM13 11h1v1h-1zM16 11h1v1h-1z"></path></svg>