<svg xmlns="http://www.w3.org/2000/svg" width="44" height="44" viewBox="0 0 44 44" shape-rendering="crispEdges" xmlns:c2pa="http://c2pa.org/manifest"><metadata><c2pa:manifest>AAAWgmp1bWIAAAAeanVtZGMycGEAEQAQgAAAqgA4m3EDYzJwYQAAABZcanVtYgAAAEdqdW1kYzJtYQARABCAAACqADibcQN1cm46YzJwYTo0M2Q5OGI2YS02ODE2LTQ1ZTYtYTg3Yi0zM2U4ZGU1OGJkZjAAAAADl2p1bWIAAAApanVtZGMyYXMAEQAQgAAAqgA4m3EDYzJwYS5hc3NlcnRpb25zAAAAALxqdW1iAAAARGp1bWRjYm9yABEAEIAAAKoAOJtxE2MycGEuaW5ncmVkaWVudC52MwAAAAAYYzJzaK14aySpOgh3bAoFJ4FuVcQAAABwY2JvcqNpZGM6Zm9ybWF0bWltYWdlL3N2Zyt4bWxqaW5zdGFuY2VJRHgseG1wOmlpZDplMTZlMWE5OC0zMDUwLTQ1ZjQtOTBkYS1hY2MwOWZhYzZiMTZscmVsYXRpb25zaGlwaHBhcmVudE9mAAAB4mp1bWIAAABBanVtZGNib3IAEQAQgAAAqgA4m3ETYzJwYS5hY3Rpb25zLnYyAAAAABhjMnNoAM0zk9gFU964UKnHsrTqegAAAZljYm9yomdhY3Rpb25zgqJmYWN0aW9ua2MycGEub3BlbmVkanBhcmFtZXRlcnOha2luZ3JlZGllbnRzgaJjdXJseC1zZWxmI2p1bWJmPWMycGEuYXNzZXJ0aW9ucy9jMnBhLmluZ3JlZGllbnQudjNkaGFzaFggcC2mkNMclgIWkgRnC7cYQIRAOMk+PpeqZLhh7e+LGBqkZmFjdGlvbngdY29tLmFudGhyb3BpYy5jbGF1ZGUucHJvdmlkZWRqcGFyYW1ldGVyc6F4H2NvbS5hbnRocm9waWMub3JpZ2luLWNvbmZpZGVuY2VndW5rbm93bmtkZXNjcmlwdGlvbnhmQ2xhdWRlIHByb3ZpZGVkIHRoaXMgZmlsZSBhdCB0aGUgcmVxdWVzdCBvZiBhIHVzZXIgYW5kIG1heSBoYXZlIGNyZWF0ZWQgb3IgbW9kaWZpZWQgdGhlIGZpbGUgY29udGVudHMubXNvZnR3YXJlQWdlbnShZG5hbWVmQ2xhdWRlcmFsbEFjdGlvbnNJbmNsdWRlZPUAAADIanVtYgAAAEBqdW1kY2JvcgARABCAAACqADibcRNjMnBhLmhhc2guZGF0YQAAAAAYYzJzaDQI2IugPl9ozppP7dJ80FwAAACAY2JvcqVjYWxnZnNoYTI1NmNwYWRNAAAAAAAAAAAAAAAAAGRoYXNoWCB9arRNP3KlQ9oRroUlqS/GiOOlsvixVr87MDHWURLsGWRuYW1lbmp1bWJmIG1hbmlmZXN0amV4Y2x1c2lvbnOBomVzdGFydBivZmxlbmd0aBkeBAAAAj5qdW1iAAAAJ2p1bWRjMmNsABEAEIAAAKoAOJtxA2MycGEuY2xhaW0udjIAAAACD2Nib3KlY2FsZ2ZzaGEyNTZpc2lnbmF0dXJleE1zZWxmI2p1bWJmPS9jMnBhL3VybjpjMnBhOjQzZDk4YjZhLTY4MTYtNDVlNi1hODdiLTMzZThkZTU4YmRmMC9jMnBhLnNpZ25hdHVyZWppbnN0YW5jZUlEeCx4bXA6aWlkOjg2ZThiYTJlLTI4MWMtNGI0OS1iNWVlLWNhZmI1YmY5YWVlOXJjcmVhdGVkX2Fzc2VydGlvbnODomN1cmx4LXNlbGYjanVtYmY9YzJwYS5hc3NlcnRpb25zL2MycGEuaW5ncmVkaWVudC52M2RoYXNoWCBwLaaQ0xyWAhaSBGcLtxhAhEA4yT4+l6pkuGHt74sYGqJjdXJseCpzZWxmI2p1bWJmPWMycGEuYXNzZXJ0aW9ucy9jMnBhLmFjdGlvbnMudjJkaGFzaFggo4TbHUoAZsI0KVgayoDrh+CWFu5EcPXdwRJwVIDykDGiY3VybHgpc2VsZiNqdW1iZj1jMnBhLmFzc2VydGlvbnMvYzJwYS5oYXNoLmRhdGFkaGFzaFggYVXVDFC1VaUqyGg5KcXGzXdRyHfzfZlcHkzQLenTVPx0Y2xhaW1fZ2VuZXJhdG9yX2luZm+jZG5hbWVvQW50aHJvcGljIEZpbGVzZ3ZlcnNpb25lMS4wLjBrc3BlY1ZlcnNpb25lMi40LjAAABA4anVtYgAAAChqdW1kYzJjcwARABCAAACqADibcQNjMnBhLnNpZ25hdHVyZQAAABAIY2JvctKEWQISogEmGCFZAgowggIGMIIBjaADAgECAhRA5aAK7sI50L64g/oGQgU9Z1UTADAKBggqhkjOPQQDAzBJMRcwFQYDVQQKEw5BbnRocm9waWMsIFBCQzEuMCwGA1UEAxMlQW50aHJvcGljIENvbnRlbnQgQ3JlZGVudGlhbHMgUm9vdCBDQTAeFw0yNjA4MDcxODQzNTZaFw0yODA4MDYxOTQzNTZaMEQxFzAVBgNVBAoTDkFudGhyb3BpYywgUEJDMSkwJwYDVQQDEyBBbnRocm9waWMgQ2xhdWRlIENvbnRlbnQgU2lnbmluZzBZMBMGByqGSM49AgEGCCqGSM49AwEHA0IABJh6CmvLUBgFFNU0vUKlOVtE6djd17L5SuwX0LemFisBM3dkd/3cyjxFA3Qo5S46fX0/ihY0VZ7mfb9KF703t5OjWDBWMA4GA1UdDwEB/wQEAwIHgDAVBgNVHSUEDjAMBgorBgEEAYPoXgIBMAwGA1UdEwEB/wQCMAAwHwYDVR0jBBgwFoAUzlHiBIFOZFsj+OPEz5o+nMHXXMIwCgYIKoZIzj0EAwMDZwAwZAIwMXMdFJ4BetLLVY7ORuE9noqbbAZOZn/aArXyTwFAZfKrPzxF2vPoJNf1+UCdg1XGAjBwX1zd9WGqYkqmL5SFqw1QySjr1zJfpJM9+1rdDwSPLMOPOjKuiXjoU/pUUeG9RwmhY3BhZFkNngAAAAAAAAAAAAAAAAAAAAAAAAAAAAAAAAAAAAAAAAAAAAAAAAAAAAAAAAAAAAAAAAAAAAAAAAAAAAAAAAAAAAAAAAAAAAAAAAAAAAAAAAAAAAAAAAAAAAAAAAAAAAAAAAAAAAAAAAAAAAAAAAAAAAAAAAAAAAAAAAAAAAAAAAAAAAAAAAAAAAAAAAAAAAAAAAAAAAAAAAAAAAAAAAAAAAAAAAAAAAAAAAAAAAAAAAAAAAAAAAAAAAAAAAAAAAAAAAAAAAAAAAAAAAAAAAAAAAAAAAAAAAAAAAAAAAAAAAAAAAAAAAAAAAAAAAAAAAAAAAAAAAAAAAAAAAAAAAAAAAAAAAAAAAAAAAAAAAAAAAAAAAAAAAAAAAAAAAAAAAAAAAAAAAAAAAAAAAAAAAAAAAAAAAAAAAAAAAAAAAAAAAAAAAAAAAAAAAAAAAAAAAAAAAAAAAAAAAAAAAAAAAAAAAAAAAAAAAAAAAAAAAAAAAAAAAAAAAAAAAAAAAAAAAAAAAAAAAAAAAAAAAAAAAAAAAAAAAAAAAAAAAAAAAAAAAAAAAAAAAAAAAAAAAAAAAAAAAAAAAAAAAAAAAAAAAAAAAAAAAAAAAAAAAAAAAAAAAAAAAAAAAAAAAAAAAAAAAAAAAAAAAAAAAAAAAAAAAAAAAAAAAAAAAAAAAAAAAAAAAAAAAAAAAAAAAAAAAAAAAAAAAAAAAAAAAAAAAAAAAAAAAAAAAAAAAAAAAAAAAAAAAAAAAAAAAAAAAAAAAAAAAAAAAAAAAAAAAAAAAAAAAAAAAAAAAAAAAAAAAAAAAAAAAAAAAAAAAAAAAAAAAAAAAAAAAAAAAAAAAAAAAAAAAAAAAAAAAAAAAAAAAAAAAAAAAAAAAAAAAAAAAAAAAAAAAAAAAAAAAAAAAAAAAAAAAAAAAAAAAAAAAAAAAAAAAAAAAAAAAAAAAAAAAAAAAAAAAAAAAAAAAAAAAAAAAAAAAAAAAAAAAAAAAAAAAAAAAAAAAAAAAAAAAAAAAAAAAAAAAAAAAAAAAAAAAAAAAAAAAAAAAAAAAAAAAAAAAAAAAAAAAAAAAAAAAAAAAAAAAAAAAAAAAAAAAAAAAAAAAAAAAAAAAAAAAAAAAAAAAAAAAAAAAAAAAAAAAAAAAAAAAAAAAAAAAAAAAAAAAAAAAAAAAAAAAAAAAAAAAAAAAAAAAAAAAAAAAAAAAAAAAAAAAAAAAAAAAAAAAAAAAAAAAAAAAAAAAAAAAAAAAAAAAAAAAAAAAAAAAAAAAAAAAAAAAAAAAAAAAAAAAAAAAAAAAAAAAAAAAAAAAAAAAAAAAAAAAAAAAAAAAAAAAAAAAAAAAAAAAAAAAAAAAAAAAAAAAAAAAAAAAAAAAAAAAAAAAAAAAAAAAAAAAAAAAAAAAAAAAAAAAAAAAAAAAAAAAAAAAAAAAAAAAAAAAAAAAAAAAAAAAAAAAAAAAAAAAAAAAAAAAAAAAAAAAAAAAAAAAAAAAAAAAAAAAAAAAAAAAAAAAAAAAAAAAAAAAAAAAAAAAAAAAAAAAAAAAAAAAAAAAAAAAAAAAAAAAAAAAAAAAAAAAAAAAAAAAAAAAAAAAAAAAAAAAAAAAAAAAAAAAAAAAAAAAAAAAAAAAAAAAAAAAAAAAAAAAAAAAAAAAAAAAAAAAAAAAAAAAAAAAAAAAAAAAAAAAAAAAAAAAAAAAAAAAAAAAAAAAAAAAAAAAAAAAAAAAAAAAAAAAAAAAAAAAAAAAAAAAAAAAAAAAAAAAAAAAAAAAAAAAAAAAAAAAAAAAAAAAAAAAAAAAAAAAAAAAAAAAAAAAAAAAAAAAAAAAAAAAAAAAAAAAAAAAAAAAAAAAAAAAAAAAAAAAAAAAAAAAAAAAAAAAAAAAAAAAAAAAAAAAAAAAAAAAAAAAAAAAAAAAAAAAAAAAAAAAAAAAAAAAAAAAAAAAAAAAAAAAAAAAAAAAAAAAAAAAAAAAAAAAAAAAAAAAAAAAAAAAAAAAAAAAAAAAAAAAAAAAAAAAAAAAAAAAAAAAAAAAAAAAAAAAAAAAAAAAAAAAAAAAAAAAAAAAAAAAAAAAAAAAAAAAAAAAAAAAAAAAAAAAAAAAAAAAAAAAAAAAAAAAAAAAAAAAAAAAAAAAAAAAAAAAAAAAAAAAAAAAAAAAAAAAAAAAAAAAAAAAAAAAAAAAAAAAAAAAAAAAAAAAAAAAAAAAAAAAAAAAAAAAAAAAAAAAAAAAAAAAAAAAAAAAAAAAAAAAAAAAAAAAAAAAAAAAAAAAAAAAAAAAAAAAAAAAAAAAAAAAAAAAAAAAAAAAAAAAAAAAAAAAAAAAAAAAAAAAAAAAAAAAAAAAAAAAAAAAAAAAAAAAAAAAAAAAAAAAAAAAAAAAAAAAAAAAAAAAAAAAAAAAAAAAAAAAAAAAAAAAAAAAAAAAAAAAAAAAAAAAAAAAAAAAAAAAAAAAAAAAAAAAAAAAAAAAAAAAAAAAAAAAAAAAAAAAAAAAAAAAAAAAAAAAAAAAAAAAAAAAAAAAAAAAAAAAAAAAAAAAAAAAAAAAAAAAAAAAAAAAAAAAAAAAAAAAAAAAAAAAAAAAAAAAAAAAAAAAAAAAAAAAAAAAAAAAAAAAAAAAAAAAAAAAAAAAAAAAAAAAAAAAAAAAAAAAAAAAAAAAAAAAAAAAAAAAAAAAAAAAAAAAAAAAAAAAAAAAAAAAAAAAAAAAAAAAAAAAAAAAAAAAAAAAAAAAAAAAAAAAAAAAAAAAAAAAAAAAAAAAAAAAAAAAAAAAAAAAAAAAAAAAAAAAAAAAAAAAAAAAAAAAAAAAAAAAAAAAAAAAAAAAAAAAAAAAAAAAAAAAAAAAAAAAAAAAAAAAAAAAAAAAAAAAAAAAAAAAAAAAAAAAAAAAAAAAAAAAAAAAAAAAAAAAAAAAAAAAAAAAAAAAAAAAAAAAAAAAAAAAAAAAAAAAAAAAAAAAAAAAAAAAAAAAAAAAAAAAAAAAAAAAAAAAAAAAAAAAAAAAAAAAAAAAAAAAAAAAAAAAAAAAAAAAAAAAAAAAAAAAAAAAAAAAAAAAAAAAAAAAAAAAAAAAAAAAAAAAAAAAAAAAAAAAAAAAAAAAAAAAAAAAAAAAAAAAAAAAAAAAAAAAAAAAAAAAAAAAAAAAAAAAAAAAAAAAAAAAAAAAAAAAAAAAAAAAAAAAAAAAAAAAAAAAAAAAAAAAAAAAAAAAAAAAAAAAAAAAAAAAAAAAAAAAAAAAAAAAAAAAAAAAAAAAAAAAAAAAAAAAAAAAAAAAAAAAAAAAAAAAAAAAAAAAAAAAAAAAAAAAAAAAAAAAAAAAAAAAAAAAAAAAAAAAAAAAAAAAAAAAAAAAAAAAAAAAAAAAAAAAAAAAAAAAAAAAAAAAAAAAAAAAAAAAAAAAAAAAAAAAAAAAAAAAAAAAAAAAAAAAAAAAAAAAAAAAAAAAAAAAAAAAAAAAAAAAAAAAAAAAAAAAAAAAAAAAAAAAAAAAAAAAAAAAAAAAAAAAAAAAAAAAAAAAAAAAAAAAAAAAAAAAAAAAAAAAAAAAAAAAAAAAAAAAAAAAAAAAAAAAAAAAAAAAAAAAAAAAAAAAAAAAAAAAAAAAAAAAAAAAAAAAAAAAAAAAAAAAAAAAAAAAAAAAAAAAAAAAAAAAAAAAAAAAAAAAAAAAAAAAAAAAAAAAAAAAAAAAAAAAAAAAAAAAAAAAAAAAAAAAAAAAAAAAAAAAAAAAAAAAAAAAAAAAAAAAAAAAAAAAAAAAAAAAAAAAAAAAAAAAAAAAAAAAAAAAAAAAAAAAAAAAAAAAAAAAAAAAAAAAAAAAAAAAAAAAAAAAAAAAAAAAAAAAAAAAAAAAAAAAAAAAAAAAAAAAAAAAAAAAAAAAAAAAAAAAAAAAAAAAAAAAAAAAAAAAAAAAAAAAAAAAAAAAAAAAAAAAAAAAAAAAAAAAAAAAAAAAAAAAAAAAAAAAAAAAAAAAAAAAAAAAAAAAAAAAAAAAAAAAAAAAAAAAAAAAAAAAAAAAAAAAAAAAAAAAAAAAAAAAAAAAAAAAAAAAAAAAAAAAAAAAAAAAAAAAAAAAAAAAAAAAAAAAAAAAAAAAAAAAAAAAAAAAAAAAAAAAAAAAAAAAAAAAAAAAAAAAAAAAAAAAAAAAAAAAAAAAAAAAAAAAAAAAAAAAAAAAAAAAAAAAAAAAAAAAAAAAAAAAAAAAAAAAAAAAAAAAAAAAAAAAAAAAAAAAAAAAAAAAAAAAAAAAAAAAAAAAAAAAAAAAAAAAAAAAAAAAAAAAAAAAAAAAAAAAAAAAAAAAAAAAAAAAAAAAAAAAAAAAAAAAAAAAAAAAAAAAAAAAAAAAAAAAAAAAAAAAAAAAAAAAAAAAAAAAAAAAAAAAAAAAAAAAAAAAAAAAAAAAAAAAAAAAAAAAAAAAAAAAAAAAAAAAAAAAAAAAAAAAAAAAAAAAAAAAAAAAAAAAAAAAAAAAAAAAAAAAAAAAAAAAAAAAAAAAAAAAAAAAAAAAAAAAAAAAAAAAAAAAAAAAAAAAAAAAAAAAAAAAAAAAAAAAAAAAAAAAAAAAAAAAAAAAAAAAAAAAAAAAAAAAAAAAAAAAAAAAAAAAAAAAAAAAAAAAAAAAAAAAAAAAAAAAAAAAAAAAAAAAAAAAAAAAAAAAAAAAAAAAAAAAAAAAAAAAAAAAAAAAAAAAAAAPZYQHdQmW00q0Y8svmBORXB+0yevQ+lLngDdUrrm0Ad6W6JKMG43MWJ7LgrcbKGo4s0Zy8nj+liJX/TV8guPT9i4jE=</c2pa:manifest></metadata><title>Genesis (locked)</title><path fill="#24212C" d="M0 0h44v1h-44zM0 1h2v1h-2zM4 1h1v1h-1zM39 1h1v1h-1zM42 1h2v1h-2zM0 2h1v1h-1zM43 2h1v1h-1zM0 3h1v1h-1zM43 3h1v1h-1zM0 4h2v1h-2zM4 4h1v1h-1zM39 4h1v1h-1zM42 4h2v1h-2zM0 5h1v1h-1zM5 5h34v1h-34zM43 5h1v1h-1zM0 6h1v1h-1zM5 6h1v1h-1zM38 6h1v1h-1zM43 6h1v1h-1zM0 7h1v1h-1zM5 7h1v1h-1zM38 7h1v1h-1zM43 7h1v1h-1zM0 8h1v1h-1zM5 8h1v1h-1zM38 8h1v1h-1zM43 8h1v1h-1zM0 9h1v1h-1zM5 9h1v1h-1zM38 9h1v1h-1zM43 9h1v1h-1zM0 10h1v1h-1zM5 10h1v1h-1zM38 10h1v1h-1zM43 10h1v1h-1zM0 11h1v1h-1zM5 11h1v1h-1zM38 11h1v1h-1zM43 11h1v1h-1zM0 12h1v1h-1zM5 12h1v1h-1zM38 12h1v1h-1zM43 12h1v1h-1zM0 13h1v1h-1zM5 13h1v1h-1zM38 13h1v1h-1zM43 13h1v1h-1zM0 14h1v1h-1zM5 14h1v1h-1zM38 14h1v1h-1zM43 14h1v1h-1zM0 15h1v1h-1zM5 15h1v1h-1zM38 15h1v1h-1zM43 15h1v1h-1zM0 16h1v1h-1zM5 16h1v1h-1zM38 16h1v1h-1zM43 16h1v1h-1zM0 17h1v1h-1zM5 17h1v1h-1zM38 17h1v1h-1zM43 17h1v1h-1zM0 18h1v1h-1zM5 18h1v1h-1zM38 18h1v1h-1zM43 18h1v1h-1zM0 19h1v1h-1zM5 19h1v1h-1zM38 19h1v1h-1zM43 19h1v1h-1zM0 20h1v1h-1zM5 20h1v1h-1zM38 20h1v1h-1zM43 20h1v1h-1zM0 21h1v1h-1zM5 21h1v1h-1zM38 21h1v1h-1zM43 21h1v1h-1zM0 22h1v1h-1zM5 22h1v1h-1zM38 22h1v1h-1zM43 22h1v1h-1zM0 23h1v1h-1zM5 23h1v1h-1zM38 23h1v1h-1zM43 23h1v1h-1zM0 24h1v1h-1zM5 24h1v1h-1zM38 24h1v1h-1zM43 24h1v1h-1zM0 25h1v1h-1zM5 25h1v1h-1zM38 25h1v1h-1zM43 25h1v1h-1zM0 26h1v1h-1zM5 26h1v1h-1zM38 26h1v1h-1zM43 26h1v1h-1zM0 27h1v1h-1zM5 27h1v1h-1zM38 27h1v1h-1zM43 27h1v1h-1zM0 28h1v1h-1zM5 28h1v1h-1zM38 28h1v1h-1zM43 28h1v1h-1zM0 29h1v1h-1zM5 29h1v1h-1zM38 29h1v1h-1zM43 29h1v1h-1zM0 30h1v1h-1zM5 30h1v1h-1zM38 30h1v1h-1zM43 30h1v1h-1zM0 31h1v1h-1zM5 31h1v1h-1zM38 31h1v1h-1zM43 31h1v1h-1zM0 32h1v1h-1zM5 32h1v1h-1zM38 32h1v1h-1zM43 32h1v1h-1zM0 33h1v1h-1zM5 33h1v1h-1zM38 33h1v1h-1zM43 33h1v1h-1zM0 34h1v1h-1zM5 34h1v1h-1zM38 34h1v1h-1zM43 34h1v1h-1zM0 35h1v1h-1zM5 35h1v1h-1zM38 35h1v1h-1zM43 35h1v1h-1zM0 36h1v1h-1zM5 36h1v1h-1zM38 36h1v1h-1zM43 36h1v1h-1zM0 37h1v1h-1zM5 37h1v1h-1zM38 37h1v1h-1zM43 37h1v1h-1zM0 38h1v1h-1zM5 38h34v1h-34zM43 38h1v1h-1zM0 39h2v1h-2zM4 39h1v1h-1zM39 39h1v1h-1zM42 39h2v1h-2zM0 40h1v1h-1zM43 40h1v1h-1zM0 41h1v1h-1zM43 41h1v1h-1zM0 42h2v1h-2zM4 42h1v1h-1zM39 42h1v1h-1zM42 42h2v1h-2zM0 43h44v1h-44z"></path><path fill="#57525F" d="M2 1h2v1h-2zM5 1h5v1h-5zM11 1h7v1h-7zM19 1h7v1h-7zM27 1h7v1h-7zM35 1h4v1h-4zM40 1h2v1h-2zM1 2h3v1h-3zM5 2h5v1h-5zM11 2h7v1h-7zM19 2h7v1h-7zM27 2h7v1h-7zM35 2h7v1h-7zM1 3h2v1h-2zM5 3h1v1h-1zM7 3h7v1h-7zM15 3h7v1h-7zM23 3h7v1h-7zM31 3h10v1h-10zM1 5h3v1h-3zM39 5h3v1h-3zM1 6h2v1h-2zM41 6h1v1h-1zM1 7h3v1h-3zM39 7h3v1h-3zM1 8h3v1h-3zM39 8h3v1h-3zM1 9h3v1h-3zM39 9h3v1h-3zM3 10h1v1h-1zM39 10h2v1h-2zM1 11h3v1h-3zM39 11h3v1h-3zM1 12h3v1h-3zM39 12h3v1h-3zM1 13h3v1h-3zM39 13h3v1h-3zM1 14h2v1h-2zM41 14h1v1h-1zM1 15h3v1h-3zM39 15h3v1h-3zM1 16h3v1h-3zM39 16h3v1h-3zM1 17h3v1h-3zM39 17h3v1h-3zM3 18h1v1h-1zM39 18h2v1h-2zM1 19h3v1h-3zM39 19h3v1h-3zM1 20h3v1h-3zM39 20h3v1h-3zM1 21h3v1h-3zM39 21h3v1h-3zM1 22h2v1h-2zM40 22h1v1h-1zM1 23h3v1h-3zM39 23h3v1h-3zM1 24h3v1h-3zM39 24h3v1h-3zM1 25h3v1h-3zM39 25h3v1h-3zM3 26h1v1h-1zM39 26h2v1h-2zM1 27h3v1h-3zM39 27h3v1h-3zM1 28h3v1h-3zM39 28h3v1h-3zM1 29h3v1h-3zM39 29h3v1h-3zM1 30h2v1h-2zM41 30h1v1h-1zM1 31h3v1h-3zM39 31h3v1h-3zM1 32h3v1h-3zM39 32h3v1h-3zM1 33h3v1h-3zM39 33h3v1h-3zM3 34h1v1h-1zM39 34h2v1h-2zM1 35h3v1h-3zM39 35h3v1h-3zM1 36h3v1h-3zM39 36h3v1h-3zM1 37h3v1h-3zM39 37h3v1h-3zM1 38h3v1h-3zM39 38h3v1h-3zM2 39h2v1h-2zM5 39h1v1h-1zM7 39h7v1h-7zM15 39h7v1h-7zM23 39h7v1h-7zM31 39h8v1h-8zM40 39h2v1h-2zM1 40h3v1h-3zM5 40h1v1h-1zM7 40h7v1h-7zM15 40h15v1h-15zM31 40h11v1h-11zM1 41h2v1h-2zM5 41h5v1h-5zM11 41h7v1h-7zM19 41h3v1h-3zM23 41h3v1h-3zM27 41h7v1h-7zM35 41h6v1h-6z"></path><path fill="#3E3A48" d="M10 1h1v1h-1zM18 1h1v1h-1zM26 1h1v1h-1zM34 1h1v1h-1zM4 2h1v1h-1zM10 2h1v1h-1zM18 2h1v1h-1zM26 2h1v1h-1zM34 2h1v1h-1zM42 2h1v1h-1zM3 3h2v1h-2zM6 3h1v1h-1zM14 3h1v1h-1zM22 3h1v1h-1zM30 3h1v1h-1zM41 3h2v1h-2zM2 4h2v1h-2zM5 4h34v1h-34zM40 4h2v1h-2zM4 5h1v1h-1zM42 5h1v1h-1zM3 6h2v1h-2zM39 6h2v1h-2zM42 6h1v1h-1zM4 7h1v1h-1zM42 7h1v1h-1zM4 8h1v1h-1zM42 8h1v1h-1zM4 9h1v1h-1zM42 9h1v1h-1zM1 10h2v1h-2zM4 10h1v1h-1zM41 10h2v1h-2zM4 11h1v1h-1zM42 11h1v1h-1zM4 12h1v1h-1zM42 12h1v1h-1zM4 13h1v1h-1zM42 13h1v1h-1zM3 14h2v1h-2zM39 14h2v1h-2zM42 14h1v1h-1zM4 15h1v1h-1zM42 15h1v1h-1zM4 16h1v1h-1zM42 16h1v1h-1zM4 17h1v1h-1zM42 17h1v1h-1zM1 18h2v1h-2zM4 18h1v1h-1zM41 18h2v1h-2zM4 19h1v1h-1zM42 19h1v1h-1zM4 20h1v1h-1zM42 20h1v1h-1zM4 21h1v1h-1zM42 21h1v1h-1zM3 22h2v1h-2zM39 22h1v1h-1zM41 22h2v1h-2zM4 23h1v1h-1zM42 23h1v1h-1zM4 24h1v1h-1zM42 24h1v1h-1zM4 25h1v1h-1zM42 25h1v1h-1zM1 26h2v1h-2zM4 26h1v1h-1zM41 26h2v1h-2zM4 27h1v1h-1zM42 27h1v1h-1zM4 28h1v1h-1zM42 28h1v1h-1zM4 29h1v1h-1zM42 29h1v1h-1zM3 30h2v1h-2zM39 30h2v1h-2zM42 30h1v1h-1zM4 31h1v1h-1zM42 31h1v1h-1zM4 32h1v1h-1zM42 32h1v1h-1zM4 33h1v1h-1zM42 33h1v1h-1zM1 34h2v1h-2zM4 34h1v1h-1zM41 34h2v1h-2zM4 35h1v1h-1zM42 35h1v1h-1zM4 36h1v1h-1zM42 36h1v1h-1zM4 37h1v1h-1zM42 37h1v1h-1zM4 38h1v1h-1zM42 38h1v1h-1zM6 39h1v1h-1zM14 39h1v1h-1zM22 39h1v1h-1zM30 39h1v1h-1zM4 40h1v1h-1zM6 40h1v1h-1zM14 40h1v1h-1zM30 40h1v1h-1zM42 40h1v1h-1zM3 41h2v1h-2zM10 41h1v1h-1zM18 41h1v1h-1zM22 41h1v1h-1zM26 41h1v1h-1zM34 41h1v1h-1zM41 41h2v1h-2zM2 42h2v1h-2zM5 42h34v1h-34zM40 42h2v1h-2z"></path></svg>