<svg xmlns="http://www.w3.org/2000/svg" width="32" height="32" viewBox="0 0 32 32" shape-rendering="crispEdges" xmlns:c2pa="http://c2pa.org/manifest"><metadata><c2pa:manifest>AAAWgmp1bWIAAAAeanVtZGMycGEAEQAQgAAAqgA4m3EDYzJwYQAAABZcanVtYgAAAEdqdW1kYzJtYQARABCAAACqADibcQN1cm46YzJwYTo3MjAyMmI4Zi00NWVmLTQwMGEtOTg1YS1hODVmNGEyNzYwMDYAAAADl2p1bWIAAAApanVtZGMyYXMAEQAQgAAAqgA4m3EDYzJwYS5hc3NlcnRpb25zAAAAALxqdW1iAAAARGp1bWRjYm9yABEAEIAAAKoAOJtxE2MycGEuaW5ncmVkaWVudC52MwAAAAAYYzJzaM24woFMoaPgTmdQuAF/QLAAAABwY2JvcqNpZGM6Zm9ybWF0bWltYWdlL3N2Zyt4bWxqaW5zdGFuY2VJRHgseG1wOmlpZDoxOWM4ODYwNS0yNzBmLTQ5YzktOWNmMi1iZjA2MmVmNDVjNThscmVsYXRpb25zaGlwaHBhcmVudE9mAAAB4mp1bWIAAABBanVtZGNib3IAEQAQgAAAqgA4m3ETYzJwYS5hY3Rpb25zLnYyAAAAABhjMnNohpT8aFsNATfZ8BEEnMLcHAAAAZljYm9yomdhY3Rpb25zgqJmYWN0aW9ua2MycGEub3BlbmVkanBhcmFtZXRlcnOha2luZ3JlZGllbnRzgaJjdXJseC1zZWxmI2p1bWJmPWMycGEuYXNzZXJ0aW9ucy9jMnBhLmluZ3JlZGllbnQudjNkaGFzaFgg4TfRk5/yH8flB5SFadVhzNW6BCTZ/PP3GVXdS4ucC56kZmFjdGlvbngdY29tLmFudGhyb3BpYy5jbGF1ZGUucHJvdmlkZWRqcGFyYW1ldGVyc6F4H2NvbS5hbnRocm9waWMub3JpZ2luLWNvbmZpZGVuY2VndW5rbm93bmtkZXNjcmlwdGlvbnhmQ2xhdWRlIHByb3ZpZGVkIHRoaXMgZmlsZSBhdCB0aGUgcmVxdWVzdCBvZiBhIHVzZXIgYW5kIG1heSBoYXZlIGNyZWF0ZWQgb3IgbW9kaWZpZWQgdGhlIGZpbGUgY29udGVudHMubXNvZnR3YXJlQWdlbnShZG5hbWVmQ2xhdWRlcmFsbEFjdGlvbnNJbmNsdWRlZPUAAADIanVtYgAAAEBqdW1kY2JvcgARABCAAACqADibcRNjMnBhLmhhc2guZGF0YQAAAAAYYzJzaImcpuWt74sPHc/lxkILljMAAACAY2JvcqVjYWxnZnNoYTI1NmNwYWRNAAAAAAAAAAAAAAAAAGRoYXNoWCDCVOe4PXnSlbuvya/oWYPTRMlIaAyJJ0kH3cB0stl+PGRuYW1lbmp1bWJmIG1hbmlmZXN0amV4Y2x1c2lvbnOBomVzdGFydBivZmxlbmd0aBkeBAAAAj5qdW1iAAAAJ2p1bWRjMmNsABEAEIAAAKoAOJtxA2MycGEuY2xhaW0udjIAAAACD2Nib3KlY2FsZ2ZzaGEyNTZpc2lnbmF0dXJleE1zZWxmI2p1bWJmPS9jMnBhL3VybjpjMnBhOjcyMDIyYjhmLTQ1ZWYtNDAwYS05ODVhLWE4NWY0YTI3NjAwNi9jMnBhLnNpZ25hdHVyZWppbnN0YW5jZUlEeCx4bXA6aWlkOmVmZTY3NDM5LTA0YTQtNDE0ZC04ZTRhLTE5NzEwZWIzM2U3ZnJjcmVhdGVkX2Fzc2VydGlvbnODomN1cmx4LXNlbGYjanVtYmY9YzJwYS5hc3NlcnRpb25zL2MycGEuaW5ncmVkaWVudC52M2RoYXNoWCDhN9GTn/Ifx+UHlIVp1WHM1boEJNn88/cZVd1Li5wLnqJjdXJseCpzZWxmI2p1bWJmPWMycGEuYXNzZXJ0aW9ucy9jMnBhLmFjdGlvbnMudjJkaGFzaFggWX36WHkr90osIDYncmB54+EOVYNcjzJ9lkn+3Wc21uCiY3VybHgpc2VsZiNqdW1iZj1jMnBhLmFzc2VydGlvbnMvYzJwYS5oYXNoLmRhdGFkaGFzaFgg1JGvhlbZjgFpX4TGj4gGXm0Ig/bnk54fNzq+2jNHWw10Y2xhaW1fZ2VuZXJhdG9yX2luZm+jZG5hbWVvQW50aHJvcGljIEZpbGVzZ3ZlcnNpb25lMS4wLjBrc3BlY1ZlcnNpb25lMi40LjAAABA4anVtYgAAAChqdW1kYzJjcwARABCAAACqADibcQNjMnBhLnNpZ25hdHVyZQAAABAIY2JvctKEWQISogEmGCFZAgowggIGMIIBjaADAgECAhRA5aAK7sI50L64g/oGQgU9Z1UTADAKBggqhkjOPQQDAzBJMRcwFQYDVQQKEw5BbnRocm9waWMsIFBCQzEuMCwGA1UEAxMlQW50aHJvcGljIENvbnRlbnQgQ3JlZGVudGlhbHMgUm9vdCBDQTAeFw0yNjA4MDcxODQzNTZaFw0yODA4MDYxOTQzNTZaMEQxFzAVBgNVBAoTDkFudGhyb3BpYywgUEJDMSkwJwYDVQQDEyBBbnRocm9waWMgQ2xhdWRlIENvbnRlbnQgU2lnbmluZzBZMBMGByqGSM49AgEGCCqGSM49AwEHA0IABJh6CmvLUBgFFNU0vUKlOVtE6djd17L5SuwX0LemFisBM3dkd/3cyjxFA3Qo5S46fX0/ihY0VZ7mfb9KF703t5OjWDBWMA4GA1UdDwEB/wQEAwIHgDAVBgNVHSUEDjAMBgorBgEEAYPoXgIBMAwGA1UdEwEB/wQCMAAwHwYDVR0jBBgwFoAUzlHiBIFOZFsj+OPEz5o+nMHXXMIwCgYIKoZIzj0EAwMDZwAwZAIwMXMdFJ4BetLLVY7ORuE9noqbbAZOZn/aArXyTwFAZfKrPzxF2vPoJNf1+UCdg1XGAjBwX1zd9WGqYkqmL5SFqw1QySjr1zJfpJM9+1rdDwSPLMOPOjKuiXjoU/pUUeG9RwmhY3BhZFkNngAAAAAAAAAAAAAAAAAAAAAAAAAAAAAAAAAAAAAAAAAAAAAAAAAAAAAAAAAAAAAAAAAAAAAAAAAAAAAAAAAAAAAAAAAAAAAAAAAAAAAAAAAAAAAAAAAAAAAAAAAAAAAAAAAAAAAAAAAAAAAAAAAAAAAAAAAAAAAAAAAAAAAAAAAAAAAAAAAAAAAAAAAAAAAAAAAAAAAAAAAAAAAAAAAAAAAAAAAAAAAAAAAAAAAAAAAAAAAAAAAAAAAAAAAAAAAAAAAAAAAAAAAAAAAAAAAAAAAAAAAAAAAAAAAAAAAAAAAAAAAAAAAAAAAAAAAAAAAAAAAAAAAAAAAAAAAAAAAAAAAAAAAAAAAAAAAAAAAAAAAAAAAAAAAAAAAAAAAAAAAAAAAAAAAAAAAAAAAAAAAAAAAAAAAAAAAAAAAAAAAAAAAAAAAAAAAAAAAAAAAAAAAAAAAAAAAAAAAAAAAAAAAAAAAAAAAAAAAAAAAAAAAAAAAAAAAAAAAAAAAAAAAAAAAAAAAAAAAAAAAAAAAAAAAAAAAAAAAAAAAAAAAAAAAAAAAAAAAAAAAAAAAAAAAAAAAAAAAAAAAAAAAAAAAAAAAAAAAAAAAAAAAAAAAAAAAAAAAAAAAAAAAAAAAAAAAAAAAAAAAAAAAAAAAAAAAAAAAAAAAAAAAAAAAAAAAAAAAAAAAAAAAAAAAAAAAAAAAAAAAAAAAAAAAAAAAAAAAAAAAAAAAAAAAAAAAAAAAAAAAAAAAAAAAAAAAAAAAAAAAAAAAAAAAAAAAAAAAAAAAAAAAAAAAAAAAAAAAAAAAAAAAAAAAAAAAAAAAAAAAAAAAAAAAAAAAAAAAAAAAAAAAAAAAAAAAAAAAAAAAAAAAAAAAAAAAAAAAAAAAAAAAAAAAAAAAAAAAAAAAAAAAAAAAAAAAAAAAAAAAAAAAAAAAAAAAAAAAAAAAAAAAAAAAAAAAAAAAAAAAAAAAAAAAAAAAAAAAAAAAAAAAAAAAAAAAAAAAAAAAAAAAAAAAAAAAAAAAAAAAAAAAAAAAAAAAAAAAAAAAAAAAAAAAAAAAAAAAAAAAAAAAAAAAAAAAAAAAAAAAAAAAAAAAAAAAAAAAAAAAAAAAAAAAAAAAAAAAAAAAAAAAAAAAAAAAAAAAAAAAAAAAAAAAAAAAAAAAAAAAAAAAAAAAAAAAAAAAAAAAAAAAAAAAAAAAAAAAAAAAAAAAAAAAAAAAAAAAAAAAAAAAAAAAAAAAAAAAAAAAAAAAAAAAAAAAAAAAAAAAAAAAAAAAAAAAAAAAAAAAAAAAAAAAAAAAAAAAAAAAAAAAAAAAAAAAAAAAAAAAAAAAAAAAAAAAAAAAAAAAAAAAAAAAAAAAAAAAAAAAAAAAAAAAAAAAAAAAAAAAAAAAAAAAAAAAAAAAAAAAAAAAAAAAAAAAAAAAAAAAAAAAAAAAAAAAAAAAAAAAAAAAAAAAAAAAAAAAAAAAAAAAAAAAAAAAAAAAAAAAAAAAAAAAAAAAAAAAAAAAAAAAAAAAAAAAAAAAAAAAAAAAAAAAAAAAAAAAAAAAAAAAAAAAAAAAAAAAAAAAAAAAAAAAAAAAAAAAAAAAAAAAAAAAAAAAAAAAAAAAAAAAAAAAAAAAAAAAAAAAAAAAAAAAAAAAAAAAAAAAAAAAAAAAAAAAAAAAAAAAAAAAAAAAAAAAAAAAAAAAAAAAAAAAAAAAAAAAAAAAAAAAAAAAAAAAAAAAAAAAAAAAAAAAAAAAAAAAAAAAAAAAAAAAAAAAAAAAAAAAAAAAAAAAAAAAAAAAAAAAAAAAAAAAAAAAAAAAAAAAAAAAAAAAAAAAAAAAAAAAAAAAAAAAAAAAAAAAAAAAAAAAAAAAAAAAAAAAAAAAAAAAAAAAAAAAAAAAAAAAAAAAAAAAAAAAAAAAAAAAAAAAAAAAAAAAAAAAAAAAAAAAAAAAAAAAAAAAAAAAAAAAAAAAAAAAAAAAAAAAAAAAAAAAAAAAAAAAAAAAAAAAAAAAAAAAAAAAAAAAAAAAAAAAAAAAAAAAAAAAAAAAAAAAAAAAAAAAAAAAAAAAAAAAAAAAAAAAAAAAAAAAAAAAAAAAAAAAAAAAAAAAAAAAAAAAAAAAAAAAAAAAAAAAAAAAAAAAAAAAAAAAAAAAAAAAAAAAAAAAAAAAAAAAAAAAAAAAAAAAAAAAAAAAAAAAAAAAAAAAAAAAAAAAAAAAAAAAAAAAAAAAAAAAAAAAAAAAAAAAAAAAAAAAAAAAAAAAAAAAAAAAAAAAAAAAAAAAAAAAAAAAAAAAAAAAAAAAAAAAAAAAAAAAAAAAAAAAAAAAAAAAAAAAAAAAAAAAAAAAAAAAAAAAAAAAAAAAAAAAAAAAAAAAAAAAAAAAAAAAAAAAAAAAAAAAAAAAAAAAAAAAAAAAAAAAAAAAAAAAAAAAAAAAAAAAAAAAAAAAAAAAAAAAAAAAAAAAAAAAAAAAAAAAAAAAAAAAAAAAAAAAAAAAAAAAAAAAAAAAAAAAAAAAAAAAAAAAAAAAAAAAAAAAAAAAAAAAAAAAAAAAAAAAAAAAAAAAAAAAAAAAAAAAAAAAAAAAAAAAAAAAAAAAAAAAAAAAAAAAAAAAAAAAAAAAAAAAAAAAAAAAAAAAAAAAAAAAAAAAAAAAAAAAAAAAAAAAAAAAAAAAAAAAAAAAAAAAAAAAAAAAAAAAAAAAAAAAAAAAAAAAAAAAAAAAAAAAAAAAAAAAAAAAAAAAAAAAAAAAAAAAAAAAAAAAAAAAAAAAAAAAAAAAAAAAAAAAAAAAAAAAAAAAAAAAAAAAAAAAAAAAAAAAAAAAAAAAAAAAAAAAAAAAAAAAAAAAAAAAAAAAAAAAAAAAAAAAAAAAAAAAAAAAAAAAAAAAAAAAAAAAAAAAAAAAAAAAAAAAAAAAAAAAAAAAAAAAAAAAAAAAAAAAAAAAAAAAAAAAAAAAAAAAAAAAAAAAAAAAAAAAAAAAAAAAAAAAAAAAAAAAAAAAAAAAAAAAAAAAAAAAAAAAAAAAAAAAAAAAAAAAAAAAAAAAAAAAAAAAAAAAAAAAAAAAAAAAAAAAAAAAAAAAAAAAAAAAAAAAAAAAAAAAAAAAAAAAAAAAAAAAAAAAAAAAAAAAAAAAAAAAAAAAAAAAAAAAAAAAAAAAAAAAAAAAAAAAAAAAAAAAAAAAAAAAAAAAAAAAAAAAAAAAAAAAAAAAAAAAAAAAAAAAAAAAAAAAAAAAAAAAAAAAAAAAAAAAAAAAAAAAAAAAAAAAAAAAAAAAAAAAAAAAAAAAAAAAAAAAAAAAAAAAAAAAAAAAAAAAAAAAAAAAAAAAAAAAAAAAAAAAAAAAAAAAAAAAAAAAAAAAAAAAAAAAAAAAAAAAAAAAAAAAAAAAAAAAAAAAAAAAAAAAAAAAAAAAAAAAAAAAAAAAAAAAAAAAAAAAAAAAAAAAAAAAAAAAAAAAAAAAAAAAAAAAAAAAAAAAAAAAAAAAAAAAAAAAAAAAAAAAAAAAAAAAAAAAAAAAAAAAAAAAAAAAAAAAAAAAAAAAAAAAAAAAAAAAAAAAAAAAAAAAAAAAAAAAAAAAAAAAAAAAAAAAAAAAAAAAAAAAAAAAAAAAAAAAAAAAAAAAAAAAAAAAAAAAAAAAAAAAAAAAAAAAAAAAAAAAAAAAAAAAAAAAAAAAAAAAAAAAAAAAAAAAAAAAAAAAAAAAAAAAAAAAAAAAAAAAAAAAAAAAAAAAAAAAAAAAAAAAAAAAAAAAAAAAAAAAAAAAAAAAAAAAAAAAAAAAAAAAAAAAAAAAAAAAAAAAAAAAAAAAAAAAAAAAAAAAAAAAAAAAAAAAAAAAAAAAAAAAAAAAAAAAAAAAAAAAAAAAAAAAAAAAAAAAAAAAAAAAAAAAAAAAAAAAAAAAAAAAAAAAAAAAAAAAAAAAAAAAAAAAAAAAAAAAAAAAAAAAAAAAAAAAAAAAAAAAAAAAAAAAAAAAAAAAAAAAAAAAAAAAAAAAAAAAAAAAAAAAAAAAAAAAAAAAAAAAAAAAAAAAAAAAAAAAAAAAAAAAAAAAAAAAAAAAAAAAAAAAAAAAAAAAAAAAAAAAAAAAAAAAAAAAAAAAAAAAAAAAAAAAAAAAAAAAAAAAAAAAAAAAAAAAAAAAAAAAAAAAAAAAAAAAAAAAAAAAAAAAAAAAAAAAAAAAAAAAAAAAAAAAAAAAAAAAAAAAAAAAAAAAAAAAAAAAAAAAAAAAAAAAAAAAAAAAAAAAAAAAAAAAAAAAAAAAAAAAAAAAAAAAAAAAAAAAAAAAAAAAAAAAAAAAAAAAAAAAAAAAAAAAAAAAAAAAAAAAAAAAAAAAAAAAAAAAAAAAAAAAAAAAAAAAAAAAAAAAAAAAAAAAAAAAAAAAAAAAAAAAAAAAAAAAAAAAAAAAAAAAAAAAAAAAAAAAAAAAAAAAAAAAAAAAAAAAAAAAAAAAAAAAAAAAAAAAAAAAAAAAAAAAAAAAAAAAAAAAAAAAAAAAAAAAAAAAAAAAAAAAAAAAAAAAAAAAAAAAAAAAAAAAAAAAAAAAAAAAAAAAAAAAAAAAAAAAAAAAAAAAAAAAAAAAAAAAAAAAAAAAAAAAAAAAAAAAAAAAAAAAAAAAAAAAAAAAAAAAAAAAAAAAAAAAAAAAAAAAAAAAAAAAAAAAAAAAAAAAAAAAAAAAAAAAAAAAAAAAAAAAAAPZYQAJU52vx2zP/e2WW1/Jqa7YJWSESI9HBOdqtmdHqai3QYSwyixEddntpi6SbU3j6xNMbIG2DdUriUyZhXdDoiAg=</c2pa:manifest></metadata><title>kenji</title><path fill="#58704F" d="M0 0h9v1h-9zM10 0h4v1h-4zM18 0h4v1h-4zM23 0h9v1h-9zM0 1h8v1h-8zM11 1h1v1h-1zM13 1h1v1h-1zM18 1h1v1h-1zM20 1h1v1h-1zM24 1h8v1h-8zM0 2h8v1h-8zM24 2h8v1h-8zM0 3h8v1h-8zM24 3h8v1h-8zM0 4h8v1h-8zM24 4h8v1h-8zM0 5h8v1h-8zM24 5h8v1h-8zM0 6h8v1h-8zM24 6h8v1h-8zM0 7h8v1h-8zM24 7h8v1h-8zM0 8h8v1h-8zM24 8h8v1h-8zM0 9h8v1h-8zM24 9h8v1h-8zM0 10h8v1h-8zM24 10h8v1h-8zM0 11h8v1h-8zM24 11h8v1h-8zM0 12h8v1h-8zM24 12h8v1h-8zM0 13h8v1h-8zM24 13h8v1h-8zM0 14h8v1h-8zM24 14h8v1h-8zM0 15h8v1h-8zM24 15h8v1h-8zM0 16h8v1h-8zM24 16h8v1h-8zM0 17h9v1h-9zM23 17h9v1h-9zM0 18h9v1h-9zM23 18h9v1h-9zM0 19h9v1h-9zM23 19h9v1h-9zM0 20h9v1h-9zM23 20h9v1h-9zM0 21h10v1h-10zM22 21h10v1h-10zM0 22h9v1h-9zM23 22h9v1h-9zM0 23h7v1h-7zM25 23h7v1h-7zM0 24h5v1h-5zM27 24h5v1h-5zM0 25h3v1h-3zM29 25h3v1h-3zM0 26h2v1h-2zM30 26h2v1h-2zM0 27h1v1h-1zM31 27h1v1h-1z"></path><path fill="#5A3A12" d="M9 0h1v1h-1zM14 0h1v1h-1zM17 0h1v1h-1zM22 0h1v1h-1zM8 1h1v1h-1zM10 1h1v1h-1zM12 1h1v1h-1zM14 1h1v1h-1zM17 1h1v1h-1zM19 1h1v1h-1zM21 1h1v1h-1zM23 1h1v1h-1zM8 2h1v1h-1zM10 2h2v1h-2zM13 2h1v1h-1zM18 2h1v1h-1zM20 2h2v1h-2zM23 2h1v1h-1zM8 3h1v1h-1zM23 3h1v1h-1zM8 4h1v1h-1zM23 4h1v1h-1zM8 5h1v1h-1zM23 5h1v1h-1zM8 6h1v1h-1zM23 6h1v1h-1zM9 7h14v1h-14z"></path><path fill="#F2C14E" d="M15 0h2v1h-2zM9 1h1v1h-1zM15 1h1v1h-1zM22 1h1v1h-1zM9 2h1v1h-1zM12 2h1v1h-1zM14 2h4v1h-4zM19 2h1v1h-1zM22 2h1v1h-1zM9 3h13v1h-13zM9 4h13v1h-13zM9 5h2v1h-2zM12 5h3v1h-3zM17 5h3v1h-3zM21 5h1v1h-1zM9 6h1v1h-1z"></path><path fill="#C9962C" d="M16 1h1v1h-1zM22 3h1v1h-1zM22 4h1v1h-1zM22 5h1v1h-1zM10 6h13v1h-13z"></path><path fill="#9A1F35" d="M11 5h1v1h-1zM15 5h2v1h-2zM20 5h1v1h-1z"></path><path fill="#3A3644" d="M8 7h1v1h-1zM23 7h1v1h-1zM8 8h1v1h-1zM23 8h1v1h-1zM8 9h1v1h-1zM23 9h1v1h-1zM8 10h1v1h-1zM11 10h10v1h-10zM23 10h1v1h-1zM8 11h1v1h-1zM20 11h1v1h-1zM23 11h1v1h-1zM8 12h1v1h-1zM10 12h1v1h-1zM21 12h1v1h-1zM23 12h1v1h-1zM9 13h1v1h-1zM13 13h1v1h-1zM18 13h2v1h-2zM22 13h1v1h-1zM9 20h1v1h-1zM22 20h1v1h-1zM10 21h1v1h-1zM21 21h1v1h-1zM10 22h1v1h-1zM21 22h1v1h-1zM11 23h1v1h-1zM20 23h1v1h-1zM11 24h1v1h-1zM20 24h1v1h-1zM12 25h1v1h-1zM19 25h1v1h-1zM13 26h1v1h-1zM18 26h1v1h-1zM14 27h4v1h-4z"></path><path fill="#A6A2AE" d="M9 8h13v1h-13zM9 9h2v1h-2zM21 9h1v1h-1zM9 10h1v1h-1zM21 10h1v1h-1zM9 11h1v1h-1zM21 11h1v1h-1zM9 12h1v1h-1zM22 12h1v1h-1zM10 17h1v1h-1zM21 17h1v1h-1zM10 18h2v1h-2zM20 18h2v1h-2zM10 19h3v1h-3zM19 19h3v1h-3zM11 20h10v1h-10zM11 21h10v1h-10zM12 22h8v1h-8zM12 23h8v1h-8zM13 24h6v1h-6zM14 25h4v1h-4z"></path><path fill="#807C8A" d="M22 8h1v1h-1zM11 9h10v1h-10zM22 9h1v1h-1zM10 10h1v1h-1zM22 10h1v1h-1zM10 11h1v1h-1zM22 11h1v1h-1zM9 16h1v1h-1zM22 16h1v1h-1zM13 18h2v1h-2zM16 18h3v1h-3zM10 20h1v1h-1zM21 20h1v1h-1zM11 22h1v1h-1zM20 22h1v1h-1zM12 24h1v1h-1zM19 24h1v1h-1zM13 25h1v1h-1zM18 25h1v1h-1zM14 26h4v1h-4z"></path><path fill="#A06A46" d="M11 11h1v1h-1zM12 12h1v1h-1zM12 13h1v1h-1zM14 16h1v1h-1zM14 17h1v1h-1zM15 18h1v1h-1z"></path><path fill="#E6B68C" d="M12 11h8v1h-8zM11 12h1v1h-1zM13 12h8v1h-8zM10 13h2v1h-2zM14 13h4v1h-4zM20 13h2v1h-2zM9 14h4v1h-4zM14 14h8v1h-8zM9 15h4v1h-4zM14 15h4v1h-4zM20 15h2v1h-2zM10 16h4v1h-4zM15 16h1v1h-1zM17 16h5v1h-5zM11 17h3v1h-3zM15 17h1v1h-1zM17 17h4v1h-4zM12 18h1v1h-1zM19 18h1v1h-1zM18 19h1v1h-1z"></path><path fill="#5E3420" d="M8 13h1v1h-1zM23 13h1v1h-1zM8 14h1v1h-1zM13 14h1v1h-1zM23 14h1v1h-1zM8 15h1v1h-1zM13 15h1v1h-1zM18 15h2v1h-2zM23 15h1v1h-1zM8 16h1v1h-1zM23 16h1v1h-1zM9 17h1v1h-1zM22 17h1v1h-1zM9 18h1v1h-1zM22 18h1v1h-1zM9 19h1v1h-1zM13 19h5v1h-5zM22 19h1v1h-1z"></path><path fill="#C98F66" d="M22 14h1v1h-1zM22 15h1v1h-1zM16 16h1v1h-1zM16 17h1v1h-1z"></path><path fill="#4E4034" d="M9 22h1v1h-1zM8 23h1v1h-1zM9 24h1v1h-1zM10 25h2v1h-2zM12 26h1v1h-1zM19 26h1v1h-1zM18 27h1v1h-1zM20 27h2v1h-2zM16 28h2v1h-2zM22 28h2v1h-2zM18 29h2v1h-2zM21 29h1v1h-1zM24 29h2v1h-2zM20 30h2v1h-2zM25 30h3v1h-3zM22 31h3v1h-3zM28 31h1v1h-1z"></path><path fill="#0E1A3A" d="M22 22h1v1h-1zM7 23h1v1h-1zM23 23h2v1h-2zM5 24h2v1h-2zM25 24h2v1h-2zM3 25h2v1h-2zM27 25h2v1h-2zM2 26h1v1h-1zM29 26h1v1h-1zM1 27h1v1h-1zM30 27h1v1h-1zM0 28h1v1h-1zM31 28h1v1h-1z"></path><path fill="#F3EDE2" d="M9 23h2v1h-2zM10 24h1v1h-1zM19 27h1v1h-1zM18 28h1v1h-1zM20 28h2v1h-2zM20 29h1v1h-1zM22 29h2v1h-2zM22 30h1v1h-1zM24 30h1v1h-1zM26 31h2v1h-2z"></path><path fill="#2F52A0" d="M21 23h2v1h-2zM7 24h2v1h-2zM21 24h4v1h-4zM5 25h5v1h-5zM20 25h7v1h-7zM3 26h9v1h-9zM20 26h9v1h-9zM2 27h12v1h-12zM22 27h8v1h-8zM1 28h15v1h-15zM24 28h7v1h-7zM0 29h18v1h-18zM26 29h6v1h-6zM0 30h20v1h-20zM28 30h3v1h-3zM0 31h1v1h-1z"></path><path fill="#BFB29C" d="M19 28h1v1h-1zM23 30h1v1h-1zM25 31h1v1h-1z"></path><path fill="#223C7A" d="M31 30h1v1h-1zM1 31h21v1h-21zM29 31h3v1h-3z"></path></svg>